<?xml version="1.0" encoding="utf-8"?>
<!-- Generator: Adobe Illustrator 16.0.0, SVG Export Plug-In . SVG Version: 6.00 Build 0)  -->
<!DOCTYPE svg PUBLIC "-//W3C//DTD SVG 1.1//EN" "http://www.w3.org/Graphics/SVG/1.1/DTD/svg11.dtd">
<svg version="1.1" id="Layer_1" xmlns="http://www.w3.org/2000/svg" xmlns:xlink="http://www.w3.org/1999/xlink" x="0px" y="0px"
	 width="516.269px" height="147.401px" viewBox="0 0 516.269 147.401" enable-background="new 0 0 516.269 147.401"
	 xml:space="preserve">
<g>
	<g>
		<g>
			<path d="M17.005,101.744c-2.366-1.252-4.509-1.836-6.763-1.836c-4.731,0-8.294,3.59-8.294,8.404c0,4.898,3.535,8.35,8.489,8.35
				c2.143,0,4.175-0.584,6.763-1.947v1.53c-2.199,1.169-4.537,1.781-6.735,1.781c-5.789,0-10.103-4.147-10.103-9.714
				c0-5.816,4.759-9.769,9.964-9.769c2.115,0,4.369,0.528,6.68,1.587V101.744z"/>
			<path d="M25.38,118.026c-3.646,0-6.373-2.783-6.373-6.485c0-3.729,2.728-6.512,6.373-6.512c3.646,0,6.346,2.783,6.346,6.512
				C31.726,115.243,29.026,118.026,25.38,118.026z M25.38,106.337c-2.838,0-4.954,2.198-4.954,5.204
				c0,2.979,2.115,5.178,4.954,5.178c2.812,0,4.927-2.199,4.927-5.178C30.307,108.563,28.191,106.337,25.38,106.337z"/>
			<path d="M35.882,107.45h0.056c1.169-1.753,2.31-2.421,4.119-2.421c2.672,0,4.647,1.753,4.647,5.121v7.625h-1.336v-7.125
				c0-2.811-1.196-4.313-3.395-4.313c-1.81,0-2.979,0.862-4.092,2.672v8.767h-1.336v-12.496h1.336V107.45z"/>
			<path d="M49.476,107.45h0.057c1.168-1.753,2.31-2.421,4.119-2.421c2.672,0,4.647,1.753,4.647,5.121v7.625h-1.336v-7.125
				c0-2.811-1.196-4.313-3.396-4.313c-1.81,0-2.979,0.862-4.092,2.672v8.767H48.14v-12.496h1.336V107.45z"/>
			<path d="M62.466,111.068c-0.389,3.201,2.144,5.65,4.982,5.65c1.67,0,3.033-0.557,4.648-1.865v1.503
				c-1.476,1.142-3.006,1.67-4.815,1.67c-3.618,0-6.234-2.783-6.234-6.651c0-3.674,2.421-6.346,5.733-6.346
				c2.672,0,5.539,1.864,5.539,6.039H62.466z M70.732,109.982c-0.474-2.449-1.81-3.646-3.952-3.646c-2.06,0-3.674,1.364-4.147,3.646
				H70.732z"/>
			<path d="M83.8,107.116c-1.447-0.612-2.198-0.779-3.256-0.779c-2.783,0-4.703,2.115-4.703,5.232c0,3.146,1.864,5.149,4.814,5.149
				c1.141,0,1.977-0.168,3.367-0.725v1.393c-1.419,0.473-2.31,0.64-3.479,0.64c-3.674,0-6.123-2.532-6.123-6.317
				c0-3.925,2.505-6.68,6.067-6.68c1.085,0,1.921,0.166,3.312,0.611V107.116z"/>
			<path d="M89.835,105.279h3.508v1.086h-3.508v7.431c0,2.144,0.028,2.923,1.865,2.923c0.752,0,1.169-0.111,2.282-0.613v1.281
				c-0.251,0.139-0.668,0.277-1.142,0.417c-0.473,0.111-1.002,0.223-1.447,0.223c-1.391,0-2.895-0.779-2.895-2.672v-8.989h-3.367
				v-1.086h3.367v-2.979l0.919-1.168h0.417V105.279z"/>
			<path d="M97.366,101.076H96.03v-2.281h1.336V101.076z M97.366,117.775H96.03v-12.496h1.336V117.775z"/>
			<path d="M102.21,107.45h0.056c1.169-1.753,2.31-2.421,4.119-2.421c2.672,0,4.647,1.753,4.647,5.121v7.625h-1.336v-7.125
				c0-2.811-1.196-4.313-3.395-4.313c-1.81,0-2.979,0.862-4.092,2.672v8.767h-1.336v-12.496h1.336V107.45z"/>
			<path d="M124.104,106.365h-2.839c1.197,1.113,1.726,2.059,1.726,3.312c0,5.595-7.097,3.757-7.097,6.179
				c0,2.728,8.182-0.612,8.182,4.676c0,2.282-2.087,3.646-5.594,3.646c-3.841,0-5.482-1.559-5.482-3.34
				c0-1.587,1.308-2.672,3.646-3.034v-0.056c-1.336-0.307-2.032-0.918-2.032-1.781c0-1.113,1.03-1.586,2.506-2.031v-0.057
				c-2.506-0.723-3.34-2.644-3.34-4.146c0-2.088,1.308-4.453,5.315-4.453h5.01V106.365z M118.815,118.443
				c-1.559,0-4.537,0.223-4.537,2.311c0,1.475,1.531,2.311,4.287,2.311c2.561,0,4.23-0.947,4.23-2.422
				C122.796,118.889,121.069,118.443,118.815,118.443z M118.343,106.393c-1.865,0-3.285,1.447-3.285,3.256
				c0,1.865,1.42,3.396,3.313,3.396c1.837,0,3.34-1.504,3.34-3.34C121.71,107.867,120.207,106.393,118.343,106.393z"/>
			<path d="M139.187,98.795c4.647,0,6.289,2.365,6.289,4.898c0,2.198-1.197,3.729-3.617,4.619c0.891,0.474,1.642,1.559,2.532,2.895
				l4.286,6.568h-1.726l-3.312-5.204c-2.283-3.591-3.007-3.896-5.289-3.896h-2.561v9.101h-1.475v-18.98H139.187z M135.79,107.45
				h3.146c3.34,0,4.954-1.447,4.954-3.729c0-2.143-1.531-3.701-5.01-3.701h-3.09V107.45z"/>
			<path d="M150.403,111.068c-0.39,3.201,2.143,5.65,4.982,5.65c1.67,0,3.033-0.557,4.647-1.865v1.503
				c-1.476,1.142-3.006,1.67-4.815,1.67c-3.617,0-6.234-2.783-6.234-6.651c0-3.674,2.422-6.346,5.734-6.346
				c2.672,0,5.538,1.864,5.538,6.039H150.403z M158.669,109.982c-0.473-2.449-1.809-3.646-3.951-3.646
				c-2.061,0-3.674,1.364-4.147,3.646H158.669z"/>
			<path d="M169.688,107.533c-1.391-0.918-2.31-1.279-3.423-1.279c-1.503,0-2.672,0.918-2.672,2.115
				c0,3.006,6.485,1.864,6.485,6.206c0,1.948-1.781,3.451-4.092,3.451c-1.28,0-2.477-0.362-3.758-1.142v-1.308
				c1.643,0.835,2.729,1.142,3.924,1.142c1.531,0,2.645-0.891,2.645-2.172c0-2.978-6.484-2.087-6.484-6.095
				c0-1.921,1.781-3.423,4.035-3.423c1.086,0,2.088,0.334,3.34,1.057V107.533z"/>
			<path d="M173.361,111.068c-0.39,3.201,2.144,5.65,4.981,5.65c1.67,0,3.034-0.557,4.648-1.865v1.503
				c-1.475,1.142-3.006,1.67-4.814,1.67c-3.619,0-6.234-2.783-6.234-6.651c0-3.674,2.421-6.346,5.732-6.346
				c2.672,0,5.539,1.864,5.539,6.039H173.361z M181.628,109.982c-0.475-2.449-1.81-3.646-3.953-3.646
				c-2.059,0-3.674,1.364-4.146,3.646H181.628z"/>
			<path d="M195.837,116.719l-0.223,0.166c-1.253,0.947-1.781,1.142-2.311,1.142c-0.612,0-0.779-0.306-0.891-1.559
				c-1.392,1.085-2.588,1.559-3.924,1.559c-1.893,0-3.368-1.419-3.368-3.173c0-3.256,3.646-4.397,7.292-4.564v-1.586
				c0-1.67-0.918-2.561-2.783-2.561c-1.336,0-2.338,0.473-3.813,1.586v-1.363c1.53-0.947,2.672-1.336,4.035-1.336
				c1.559,0,3.896,0.64,3.896,3.256v7.793c0,0.501,0.084,0.641,0.307,0.641c0.306,0,1.113-0.585,1.781-1.113V116.719z
				 M192.413,111.402c-3.256-0.139-5.956,1.28-5.956,3.451c0,1.169,1.058,2.06,2.478,2.06c1.196,0,2.17-0.445,3.479-1.614V111.402z"
				/>
			<path d="M205.679,107.756c-1.196-1.085-1.809-1.419-2.505-1.419c-1.224,0-2.644,1.28-4.007,3.591v7.848h-1.336v-12.496h1.336
				v3.284h0.055c1.476-2.338,2.979-3.534,4.37-3.534c0.862,0,1.642,0.389,2.866,1.475L205.679,107.756z"/>
			<path d="M216.167,107.116c-1.447-0.612-2.198-0.779-3.256-0.779c-2.783,0-4.703,2.115-4.703,5.232
				c0,3.146,1.864,5.149,4.814,5.149c1.141,0,1.977-0.168,3.367-0.725v1.393c-1.419,0.473-2.31,0.64-3.479,0.64
				c-3.674,0-6.123-2.532-6.123-6.317c0-3.925,2.505-6.68,6.067-6.68c1.085,0,1.921,0.166,3.312,0.611V107.116z"/>
			<path d="M220.032,107.45h0.055c1.17-1.753,2.311-2.421,4.119-2.421c2.672,0,4.648,1.753,4.648,5.093v7.653h-1.336v-7.125
				c0-2.699-1.002-4.313-3.396-4.313c-1.837,0-2.95,0.891-4.091,2.672v8.767h-1.336v-18.98h1.336V107.45z"/>
			<path d="M10.715,146.094l-0.223,0.166c-1.252,0.947-1.781,1.142-2.31,1.142c-0.612,0-0.78-0.306-0.891-1.559
				c-1.392,1.085-2.588,1.559-3.924,1.559c-1.893,0-3.368-1.419-3.368-3.173c0-3.256,3.646-4.397,7.292-4.564v-1.586
				c0-1.67-0.918-2.561-2.783-2.561c-1.336,0-2.338,0.473-3.813,1.586v-1.363c1.531-0.947,2.672-1.336,4.036-1.336
				c1.559,0,3.896,0.64,3.896,3.256v7.793c0,0.501,0.083,0.641,0.306,0.641c0.306,0,1.113-0.585,1.781-1.113V146.094z
				 M7.292,140.777c-3.256-0.139-5.956,1.28-5.956,3.451c0,1.169,1.058,2.06,2.477,2.06c1.197,0,2.171-0.445,3.479-1.614V140.777z"
				/>
			<path d="M14.031,136.825h0.056c1.169-1.753,2.31-2.421,4.119-2.421c2.672,0,4.648,1.753,4.648,5.121v7.625h-1.336v-7.125
				c0-2.811-1.197-4.313-3.396-4.313c-1.809,0-2.978,0.862-4.091,2.672v8.767h-1.336v-12.496h1.336V136.825z"/>
			<path d="M36.968,147.15h-1.336v-0.974c-1.336,0.919-2.281,1.225-3.701,1.225c-3.563,0-6.318-2.839-6.318-6.513
				c0-3.729,2.672-6.484,6.318-6.484c1.28,0,2.171,0.25,3.701,1.002v-7.236h1.336V147.15z M35.632,136.881
				c-1.363-0.863-2.338-1.169-3.646-1.169c-2.895,0-4.954,2.115-4.954,5.093c0,3.034,2.227,5.289,5.232,5.289
				c1.252,0,2.088-0.279,3.367-1.142V136.881z"/>
			<path d="M53.47,128.17c4.648,0,6.291,2.365,6.291,4.898c0,2.198-1.197,3.729-3.619,4.619c0.891,0.474,1.643,1.559,2.533,2.895
				l4.286,6.568h-1.726l-3.313-5.204c-2.281-3.591-3.006-3.896-5.287-3.896h-2.561v9.101H48.6v-18.98H53.47z M50.075,136.825h3.145
				c3.34,0,4.954-1.447,4.954-3.729c0-2.143-1.53-3.701-5.01-3.701h-3.089V136.825z"/>
			<path d="M64.688,140.443c-0.39,3.201,2.144,5.65,4.981,5.65c1.67,0,3.034-0.557,4.648-1.865v1.503
				c-1.475,1.142-3.006,1.67-4.814,1.67c-3.619,0-6.234-2.783-6.234-6.651c0-3.674,2.421-6.346,5.732-6.346
				c2.672,0,5.539,1.864,5.539,6.039H64.688z M72.954,139.357c-0.474-2.449-1.81-3.646-3.953-3.646
				c-2.059,0-3.674,1.364-4.146,3.646H72.954z"/>
			<path d="M83.974,136.908c-1.393-0.918-2.311-1.279-3.424-1.279c-1.503,0-2.672,0.918-2.672,2.115
				c0,3.006,6.484,1.864,6.484,6.206c0,1.948-1.781,3.451-4.091,3.451c-1.28,0-2.478-0.362-3.757-1.142v-1.308
				c1.642,0.835,2.727,1.142,3.924,1.142c1.531,0,2.645-0.891,2.645-2.172c0-2.978-6.485-2.087-6.485-6.095
				c0-1.921,1.781-3.423,4.035-3.423c1.086,0,2.088,0.334,3.341,1.057V136.908z"/>
			<path d="M87.646,140.443c-0.39,3.201,2.143,5.65,4.982,5.65c1.67,0,3.033-0.557,4.647-1.865v1.503
				c-1.476,1.142-3.006,1.67-4.815,1.67c-3.617,0-6.234-2.783-6.234-6.651c0-3.674,2.422-6.346,5.734-6.346
				c2.672,0,5.538,1.864,5.538,6.039H87.646z M95.911,139.357c-0.473-2.449-1.809-3.646-3.951-3.646
				c-2.061,0-3.674,1.364-4.147,3.646H95.911z"/>
			<path d="M110.12,146.094l-0.223,0.166c-1.252,0.947-1.781,1.142-2.31,1.142c-0.612,0-0.779-0.306-0.891-1.559
				c-1.392,1.085-2.589,1.559-3.925,1.559c-1.893,0-3.367-1.419-3.367-3.173c0-3.256,3.646-4.397,7.292-4.564v-1.586
				c0-1.67-0.919-2.561-2.783-2.561c-1.336,0-2.338,0.473-3.813,1.586v-1.363c1.531-0.947,2.672-1.336,4.036-1.336
				c1.558,0,3.896,0.64,3.896,3.256v7.793c0,0.501,0.083,0.641,0.306,0.641c0.307,0,1.113-0.585,1.781-1.113V146.094z
				 M106.697,140.777c-3.257-0.139-5.956,1.28-5.956,3.451c0,1.169,1.058,2.06,2.477,2.06c1.197,0,2.172-0.445,3.479-1.614V140.777z
				"/>
			<path d="M119.963,137.131c-1.196-1.085-1.81-1.419-2.505-1.419c-1.225,0-2.645,1.28-4.008,3.591v7.848h-1.336v-12.496h1.336
				v3.284h0.056c1.476-2.338,2.978-3.534,4.37-3.534c0.862,0,1.642,0.389,2.866,1.475L119.963,137.131z"/>
			<path d="M130.452,136.491c-1.447-0.612-2.199-0.779-3.258-0.779c-2.782,0-4.703,2.115-4.703,5.232
				c0,3.146,1.865,5.149,4.815,5.149c1.142,0,1.976-0.168,3.367-0.725v1.393c-1.419,0.473-2.31,0.64-3.479,0.64
				c-3.673,0-6.122-2.532-6.122-6.317c0-3.925,2.505-6.68,6.067-6.68c1.086,0,1.92,0.166,3.313,0.611V136.491z"/>
			<path d="M134.315,136.825h0.057c1.168-1.753,2.31-2.421,4.119-2.421c2.672,0,4.647,1.753,4.647,5.093v7.653h-1.336v-7.125
				c0-2.699-1.002-4.313-3.396-4.313c-1.837,0-2.95,0.891-4.092,2.672v8.767h-1.336v-18.98h1.336V136.825z"/>
			<path d="M147.306,140.443c-0.389,3.201,2.144,5.65,4.982,5.65c1.67,0,3.033-0.557,4.648-1.865v1.503
				c-1.476,1.142-3.006,1.67-4.815,1.67c-3.618,0-6.234-2.783-6.234-6.651c0-3.674,2.421-6.346,5.733-6.346
				c2.672,0,5.539,1.864,5.539,6.039H147.306z M155.572,139.357c-0.474-2.449-1.81-3.646-3.952-3.646
				c-2.06,0-3.674,1.364-4.146,3.646H155.572z"/>
			<path d="M167.764,137.131c-1.196-1.085-1.81-1.419-2.505-1.419c-1.225,0-2.645,1.28-4.008,3.591v7.848h-1.336v-12.496h1.336
				v3.284h0.056c1.476-2.338,2.978-3.534,4.37-3.534c0.862,0,1.642,0.389,2.866,1.475L167.764,137.131z"/>
			<path d="M176.847,136.908c-1.392-0.918-2.311-1.279-3.424-1.279c-1.502,0-2.672,0.918-2.672,2.115
				c0,3.006,6.485,1.864,6.485,6.206c0,1.948-1.781,3.451-4.091,3.451c-1.281,0-2.478-0.362-3.758-1.142v-1.308
				c1.643,0.835,2.728,1.142,3.924,1.142c1.531,0,2.645-0.891,2.645-2.172c0-2.978-6.484-2.087-6.484-6.095
				c0-1.921,1.781-3.423,4.035-3.423c1.086,0,2.088,0.334,3.34,1.057V136.908z"/>
		</g>
		<g>
			<path d="M32.054,17.19c19.612,0,31.989,13.947,31.989,30.508c0,16.038-12.028,30.507-32.163,30.507
				c-19.438,0-31.727-14.382-31.727-30.507C0.153,31.225,12.791,17.19,32.054,17.19z M32.054,70.36
				c13.337,0,23.186-9.676,23.186-22.662c0-13.074-9.849-22.663-23.186-22.663c-13.248,0-23.098,9.589-23.098,22.663
				C8.956,60.685,18.806,70.36,32.054,70.36z"/>
			<path d="M88.669,17.977c12.027,0,19.523,6.361,19.523,16.647c0,6.886-3.573,12.028-9.937,14.555
				c5.404,3.574,8.717,9.065,13.249,16.476c2.527,4.097,4.01,6.102,8.106,11.766h-10.198l-7.845-12.203
				C93.724,53.016,90.15,51.62,85.792,51.62h-3.574v25.8h-8.541V17.977H88.669z M82.218,43.949h5.491
				c9.153,0,11.767-4.706,11.681-9.674c-0.088-5.578-3.4-8.978-11.681-8.978h-5.491V43.949z"/>
			<path d="M172.335,31.225c-7.322-4.271-13.597-6.189-20.483-6.189c-13.597,0-23.708,9.676-23.708,22.751
				c0,13.335,9.762,22.574,24.057,22.574c6.711,0,14.033-2.353,20.744-6.712v9.326c-5.839,3.052-12.202,5.23-21.529,5.23
				c-22.313,0-32.076-17.171-32.076-29.636c0-18.131,13.685-31.379,32.599-31.379c6.102,0,12.29,1.483,20.396,4.882V31.225z"/>
			<path d="M205.302,17.977h23.098c21.965,0,31.641,15.688,31.641,29.722c0,15.253-11.941,29.722-31.553,29.722h-23.186V17.977z
				 M213.844,69.751h13.598c19.35,0,23.795-14.731,23.795-22.053c0-11.942-7.583-22.052-24.231-22.052h-13.161V69.751z"/>
			<g>
				<path d="M193.395,77.42h-8.542V17.977h8.542v33.09V77.42z"/>
				<path d="M194.724,5.601c0,3.08-2.521,5.6-5.601,5.6s-5.6-2.52-5.6-5.6S186.043,0,189.123,0S194.724,2.521,194.724,5.601z"/>
			</g>
		</g>
	</g>
	<g>
		<path d="M333.827,40.92h3.652v27.285h-3.926v-21.23l-8.389,10.547h-0.723l-8.486-10.547v21.23h-3.906V40.92h3.699l9.066,11.206
			L333.827,40.92z"/>
		<path d="M358.183,59.533h-12.637c0.092,1.719,0.668,3.086,1.729,4.102c1.063,1.016,2.432,1.523,4.111,1.523
			c2.344,0,4.506-0.729,6.484-2.188v3.477c-1.094,0.729-2.178,1.25-3.252,1.563s-2.334,0.469-3.779,0.469
			c-1.979,0-3.58-0.41-4.805-1.23c-1.223-0.82-2.203-1.924-2.939-3.311c-0.734-1.387-1.104-2.991-1.104-4.814
			c0-2.734,0.775-4.958,2.324-6.67c1.551-1.712,3.563-2.568,6.035-2.568c2.383,0,4.285,0.833,5.703,2.5
			c1.42,1.667,2.129,3.9,2.129,6.699V59.533z M345.624,57.404h9.043c-0.09-1.419-0.514-2.513-1.27-3.281
			c-0.754-0.768-1.77-1.152-3.047-1.152c-1.275,0-2.32,0.384-3.135,1.152C346.403,54.892,345.872,55.985,345.624,57.404z"/>
		<path d="M376.757,55.158v13.047h-3.574v-10c0-1.992-0.266-3.382-0.801-4.17c-0.533-0.788-1.465-1.182-2.793-1.182
			c-0.742,0-1.422,0.169-2.041,0.508c-0.617,0.339-1.324,0.938-2.119,1.797v13.047h-3.555V50.236h3.555V52.6
			c1.811-1.81,3.582-2.715,5.313-2.715c2.279,0,4.043,1.081,5.293,3.242c1.902-2.188,3.887-3.281,5.957-3.281
			c1.746,0,3.182,0.638,4.307,1.914c1.127,1.276,1.689,3.223,1.689,5.84v10.605h-3.555V57.561c0-1.497-0.305-2.643-0.918-3.438
			c-0.611-0.794-1.49-1.191-2.637-1.191C379.407,52.932,378.034,53.674,376.757,55.158z"/>
		<path d="M392.714,40.92h3.555v10.605c1.537-1.12,3.178-1.68,4.922-1.68c2.279,0,4.141,0.859,5.586,2.578s2.168,3.926,2.168,6.621
			c0,2.891-0.861,5.192-2.588,6.904c-1.725,1.712-4.033,2.568-6.924,2.568c-1.158,0-2.379-0.124-3.662-0.371
			c-1.281-0.247-2.301-0.56-3.057-0.938V40.92z M396.269,54.924v9.727c1.211,0.365,2.455,0.547,3.73,0.547
			c1.576,0,2.861-0.56,3.857-1.68c0.996-1.12,1.494-2.559,1.494-4.316c0-1.784-0.465-3.235-1.396-4.355
			c-0.93-1.12-2.145-1.68-3.643-1.68C398.983,53.166,397.636,53.752,396.269,54.924z"/>
		<path d="M428.183,59.533h-12.637c0.092,1.719,0.668,3.086,1.729,4.102c1.063,1.016,2.432,1.523,4.111,1.523
			c2.344,0,4.506-0.729,6.484-2.188v3.477c-1.094,0.729-2.178,1.25-3.252,1.563s-2.334,0.469-3.779,0.469
			c-1.979,0-3.58-0.41-4.805-1.23c-1.223-0.82-2.203-1.924-2.939-3.311c-0.734-1.387-1.104-2.991-1.104-4.814
			c0-2.734,0.775-4.958,2.324-6.67c1.551-1.712,3.563-2.568,6.035-2.568c2.383,0,4.285,0.833,5.703,2.5
			c1.42,1.667,2.129,3.9,2.129,6.699V59.533z M415.624,57.404h9.043c-0.09-1.419-0.514-2.513-1.27-3.281
			c-0.754-0.768-1.77-1.152-3.047-1.152c-1.275,0-2.32,0.384-3.135,1.152C416.403,54.892,415.872,55.985,415.624,57.404z"/>
		<path d="M435.839,50.236v4.121l0.195-0.313c1.719-2.773,3.438-4.16,5.156-4.16c1.342,0,2.742,0.677,4.199,2.031l-1.875,3.125
			c-1.236-1.172-2.383-1.758-3.438-1.758c-1.145,0-2.139,0.547-2.979,1.641s-1.26,2.39-1.26,3.887v9.395h-3.574V50.236H435.839z"/>
		<path d="M325.517,88.529c4.217,0,7.727,1.335,10.531,4.004c2.803,2.67,4.205,6.016,4.205,10.039s-1.414,7.354-4.244,9.99
			s-6.398,3.955-10.707,3.955c-4.111,0-7.537-1.318-10.275-3.955c-2.74-2.637-4.109-5.94-4.109-9.912
			c0-4.075,1.379-7.447,4.139-10.117C317.813,89.864,321.302,88.529,325.517,88.529z M325.673,92.24
			c-3.121,0-5.688,0.977-7.697,2.93s-3.016,4.447-3.016,7.48c0,2.943,1.008,5.391,3.025,7.344c2.016,1.953,4.539,2.93,7.57,2.93
			c3.045,0,5.584-0.996,7.621-2.988c2.035-1.992,3.053-4.473,3.053-7.441c0-2.891-1.018-5.322-3.053-7.295
			C331.14,93.227,328.64,92.24,325.673,92.24z"/>
		<path d="M348.378,98.236v4.121l0.195-0.313c1.719-2.773,3.438-4.16,5.156-4.16c1.342,0,2.742,0.678,4.199,2.031l-1.875,3.125
			c-1.236-1.172-2.383-1.758-3.438-1.758c-1.145,0-2.139,0.547-2.979,1.641s-1.26,2.39-1.26,3.887v9.395h-3.574V98.236H348.378z"/>
		<path d="M359.491,104.447c0-1.914,0.701-3.428,2.1-4.541c1.4-1.113,3.311-1.67,5.732-1.67h7.402v2.773h-3.633
			c0.703,0.717,1.191,1.367,1.465,1.953s0.41,1.257,0.41,2.012c0,0.938-0.266,1.859-0.801,2.764
			c-0.533,0.905-1.221,1.599-2.061,2.08c-0.84,0.482-2.217,0.866-4.131,1.152c-1.34,0.195-2.012,0.658-2.012,1.387
			c0,0.417,0.252,0.759,0.752,1.025c0.502,0.268,1.41,0.544,2.725,0.83c2.201,0.482,3.617,0.859,4.248,1.133
			c0.633,0.273,1.201,0.664,1.709,1.172c0.859,0.859,1.289,1.94,1.289,3.242c0,1.706-0.758,3.066-2.275,4.082
			c-1.516,1.016-3.545,1.523-6.084,1.523c-2.564,0-4.611-0.511-6.143-1.533c-1.529-1.022-2.295-2.393-2.295-4.111
			c0-2.435,1.504-4.004,4.512-4.707c-1.197-0.768-1.797-1.529-1.797-2.285c0-0.572,0.258-1.094,0.771-1.563
			c0.516-0.469,1.209-0.813,2.08-1.035C360.813,108.959,359.491,107.064,359.491,104.447z M365.331,117.045
			c-1.197,0-2.178,0.254-2.939,0.762s-1.143,1.159-1.143,1.953c0,1.849,1.668,2.773,5,2.773c1.576,0,2.797-0.231,3.662-0.693
			c0.867-0.462,1.299-1.116,1.299-1.963c0-0.833-0.547-1.514-1.641-2.041S367.063,117.045,365.331,117.045z M366.171,101.322
			c-0.963,0-1.783,0.326-2.461,0.977c-0.676,0.651-1.016,1.433-1.016,2.344c0,0.925,0.332,1.689,0.996,2.295s1.504,0.908,2.52,0.908
			c1.004,0,1.84-0.309,2.51-0.928c0.672-0.618,1.006-1.39,1.006-2.314c0-0.938-0.338-1.719-1.016-2.344
			C368.034,101.635,367.187,101.322,366.171,101.322z"/>
		<path d="M388.769,105.404v7.637c0,0.612,0.209,0.918,0.625,0.918c0.43,0,1.102-0.318,2.012-0.957v2.168
			c-0.807,0.521-1.455,0.876-1.943,1.064s-0.998,0.283-1.533,0.283c-1.523,0-2.422-0.599-2.695-1.797
			c-1.51,1.172-3.117,1.758-4.824,1.758c-1.25,0-2.291-0.413-3.125-1.24c-0.832-0.826-1.25-1.865-1.25-3.115
			c0-1.133,0.408-2.145,1.221-3.037c0.814-0.892,1.971-1.598,3.467-2.119l4.551-1.563v-0.957c0-2.161-1.08-3.242-3.242-3.242
			c-1.939,0-3.828,1.003-5.664,3.008v-3.887c1.381-1.627,3.367-2.441,5.957-2.441c1.941,0,3.496,0.508,4.668,1.523
			c0.391,0.326,0.742,0.759,1.055,1.299c0.313,0.541,0.512,1.081,0.596,1.621C388.728,102.869,388.769,103.895,388.769,105.404z
			 M385.272,112.65v-5.332l-2.383,0.918c-1.211,0.482-2.066,0.967-2.568,1.455c-0.5,0.488-0.752,1.098-0.752,1.826
			c0,0.742,0.238,1.348,0.713,1.816c0.477,0.469,1.092,0.703,1.846,0.703C383.261,114.037,384.31,113.575,385.272,112.65z"/>
		<path d="M398.104,98.236v2.285c1.59-1.758,3.393-2.637,5.41-2.637c1.121,0,2.162,0.29,3.125,0.869
			c0.965,0.58,1.697,1.374,2.197,2.383c0.502,1.01,0.752,2.607,0.752,4.795v10.273h-3.555v-10.234c0-1.836-0.279-3.147-0.84-3.936
			c-0.559-0.787-1.496-1.182-2.813-1.182c-1.68,0-3.105,0.84-4.277,2.52v12.832h-3.633V98.236H398.104z"/>
		<path d="M416.386,90.678c0.586,0,1.088,0.202,1.504,0.605c0.418,0.404,0.625,0.898,0.625,1.484c0,0.573-0.207,1.068-0.625,1.484
			c-0.416,0.417-0.918,0.625-1.504,0.625c-0.547,0-1.027-0.211-1.445-0.635c-0.416-0.423-0.625-0.914-0.625-1.475
			c0-0.547,0.209-1.031,0.625-1.455C415.358,90.89,415.839,90.678,416.386,90.678z M414.628,98.236h3.555v17.969h-3.555V98.236z"/>
		<path d="M421.64,98.236h15.352l-9.516,14.648h9.516v3.32h-15.742l9.445-14.648h-9.055V98.236z"/>
		<path d="M451.288,105.404v7.637c0,0.612,0.209,0.918,0.625,0.918c0.43,0,1.102-0.318,2.012-0.957v2.168
			c-0.807,0.521-1.455,0.876-1.943,1.064s-0.998,0.283-1.533,0.283c-1.523,0-2.422-0.599-2.695-1.797
			c-1.51,1.172-3.117,1.758-4.824,1.758c-1.25,0-2.291-0.413-3.125-1.24c-0.832-0.826-1.25-1.865-1.25-3.115
			c0-1.133,0.408-2.145,1.221-3.037c0.814-0.892,1.971-1.598,3.467-2.119l4.551-1.563v-0.957c0-2.161-1.08-3.242-3.242-3.242
			c-1.939,0-3.828,1.003-5.664,3.008v-3.887c1.381-1.627,3.367-2.441,5.957-2.441c1.941,0,3.496,0.508,4.668,1.523
			c0.391,0.326,0.742,0.759,1.055,1.299c0.313,0.541,0.512,1.081,0.596,1.621C451.247,102.869,451.288,103.895,451.288,105.404z
			 M447.792,112.65v-5.332l-2.383,0.918c-1.211,0.482-2.066,0.967-2.568,1.455c-0.5,0.488-0.752,1.098-0.752,1.826
			c0,0.742,0.238,1.348,0.713,1.816c0.477,0.469,1.092,0.703,1.846,0.703C445.78,114.037,446.829,113.575,447.792,112.65z"/>
		<path d="M454.55,101.088l6.68-6.563v3.711h5.684v3.203h-5.684v8.795c0,2.053,0.854,3.08,2.559,3.08
			c1.277,0,2.625-0.423,4.043-1.27v3.32c-1.367,0.769-2.857,1.152-4.473,1.152c-1.627,0-2.98-0.475-4.063-1.426
			c-0.338-0.286-0.617-0.608-0.84-0.967c-0.221-0.357-0.406-0.826-0.557-1.406c-0.148-0.579-0.225-1.683-0.225-3.311v-7.969h-3.125
			V101.088z"/>
		<path d="M472.226,90.678c0.586,0,1.088,0.202,1.504,0.605c0.418,0.404,0.625,0.898,0.625,1.484c0,0.573-0.207,1.068-0.625,1.484
			c-0.416,0.417-0.918,0.625-1.504,0.625c-0.547,0-1.027-0.211-1.445-0.635c-0.416-0.423-0.625-0.914-0.625-1.475
			c0-0.547,0.209-1.031,0.625-1.455C471.198,90.89,471.679,90.678,472.226,90.678z M470.468,98.236h3.555v17.969h-3.555V98.236z"/>
		<path d="M487.753,98.197c2.734,0,5.008,0.883,6.816,2.646c1.811,1.765,2.715,3.981,2.715,6.65c0,2.592-0.918,4.743-2.754,6.455
			c-1.836,1.713-4.146,2.568-6.934,2.568c-2.695,0-4.947-0.869-6.758-2.607c-1.809-1.738-2.715-3.909-2.715-6.514
			c0-2.63,0.916-4.82,2.744-6.572C482.698,99.073,484.993,98.197,487.753,98.197z M487.558,101.4c-1.705,0-3.105,0.561-4.199,1.68
			c-1.094,1.12-1.641,2.546-1.641,4.277c0,1.719,0.561,3.122,1.68,4.209c1.121,1.088,2.559,1.631,4.316,1.631
			c1.746,0,3.174-0.55,4.287-1.65c1.113-1.1,1.67-2.51,1.67-4.229c0-1.705-0.578-3.118-1.738-4.238
			C490.774,101.961,489.315,101.4,487.558,101.4z"/>
		<path d="M504.784,98.236v2.285c1.59-1.758,3.393-2.637,5.41-2.637c1.121,0,2.162,0.29,3.125,0.869
			c0.965,0.58,1.697,1.374,2.197,2.383c0.502,1.01,0.752,2.607,0.752,4.795v10.273h-3.555v-10.234c0-1.836-0.279-3.147-0.84-3.936
			c-0.559-0.787-1.496-1.182-2.813-1.182c-1.68,0-3.105,0.84-4.277,2.52v12.832h-3.633V98.236H504.784z"/>
	</g>
	<rect x="283.655" y="5.6" width="3.938" height="141.55"/>
</g>
</svg>
