<?xml version="1.0" encoding="utf-8"?>
<!-- Generator: Adobe Illustrator 22.0.1, SVG Export Plug-In . SVG Version: 6.00 Build 0)  -->
<svg version="1.1" id="Layer_1" xmlns="http://www.w3.org/2000/svg" xmlns:xlink="http://www.w3.org/1999/xlink" x="0px" y="0px"
	 viewBox="0 0 612 792" style="enable-background:new 0 0 612 792;" xml:space="preserve">
<style type="text/css">
	.st0{fill:#808285;}
	.st1{fill:#A6CE39;}
	.st2{fill:#A7A9AC;}
	.st3{fill:none;stroke:#6D6E71;stroke-width:0.3066;}
</style>
<g>
	<g>
		<path class="st0" d="M301.4,390.7c-0.9,0-1.6,0.3-2.1,0.9c-0.5,0.6-0.7,1.5-0.7,2.6c0,1.1,0.2,2,0.7,2.6c0.5,0.6,1.2,0.9,2.1,0.9
			c0.4,0,0.8,0,1.1-0.1s0.8-0.2,1.1-0.3v1.3c-0.7,0.3-1.6,0.4-2.5,0.4c-1.4,0-2.4-0.4-3.1-1.2s-1.1-2-1.1-3.5c0-1,0.2-1.8,0.5-2.5
			c0.4-0.7,0.9-1.3,1.5-1.7c0.7-0.4,1.5-0.6,2.4-0.6c0.9,0,1.8,0.2,2.6,0.6l-0.5,1.3c-0.3-0.1-0.6-0.3-1-0.4
			S301.8,390.7,301.4,390.7z"/>
		<path class="st0" d="M311.7,395.3c0,1.1-0.3,2-0.9,2.7s-1.4,1-2.5,1c-0.7,0-1.2-0.1-1.7-0.4c-0.5-0.3-0.9-0.7-1.2-1.3
			c-0.3-0.6-0.4-1.2-0.4-1.9c0-1.1,0.3-2,0.9-2.7c0.6-0.6,1.4-1,2.5-1c1,0,1.8,0.3,2.4,1C311.4,393.3,311.7,394.2,311.7,395.3z
			 M306.6,395.3c0,1.6,0.6,2.4,1.8,2.4c1.2,0,1.8-0.8,1.8-2.4c0-1.6-0.6-2.4-1.8-2.4c-0.6,0-1.1,0.2-1.4,0.6
			C306.8,393.9,306.6,394.5,306.6,395.3z"/>
		<path class="st0" d="M319.6,398.8h-1.5v-4.3c0-0.5-0.1-0.9-0.3-1.2s-0.6-0.4-1-0.4c-0.6,0-1.1,0.2-1.4,0.6c-0.3,0.4-0.4,1-0.4,1.9
			v3.5h-1.5v-7h1.2l0.2,0.9h0.1c0.2-0.3,0.5-0.6,0.9-0.8c0.4-0.2,0.8-0.3,1.3-0.3c1.7,0,2.5,0.9,2.5,2.6V398.8z"/>
		<path class="st0" d="M326.4,396.8c0,0.7-0.2,1.2-0.7,1.6c-0.5,0.4-1.2,0.5-2.1,0.5c-0.9,0-1.7-0.1-2.3-0.4v-1.3
			c0.8,0.4,1.6,0.6,2.3,0.6c0.9,0,1.4-0.3,1.4-0.8c0-0.2-0.1-0.3-0.2-0.4c-0.1-0.1-0.3-0.2-0.5-0.4c-0.2-0.1-0.6-0.3-1-0.4
			c-0.8-0.3-1.4-0.6-1.6-0.9c-0.3-0.3-0.4-0.7-0.4-1.2c0-0.6,0.2-1.1,0.7-1.4s1.1-0.5,2-0.5c0.8,0,1.6,0.2,2.3,0.5l-0.5,1.1
			c-0.8-0.3-1.4-0.5-1.9-0.5c-0.8,0-1.2,0.2-1.2,0.7c0,0.2,0.1,0.4,0.3,0.6s0.7,0.4,1.3,0.6c0.6,0.2,1,0.4,1.3,0.6
			c0.3,0.2,0.5,0.4,0.6,0.6C326.4,396.2,326.4,396.5,326.4,396.8z"/>
		<path class="st0" d="M334.3,395.3c0,1.1-0.3,2-0.9,2.7s-1.4,1-2.5,1c-0.7,0-1.2-0.1-1.7-0.4c-0.5-0.3-0.9-0.7-1.2-1.3
			c-0.3-0.6-0.4-1.2-0.4-1.9c0-1.1,0.3-2,0.9-2.7c0.6-0.6,1.4-1,2.5-1c1,0,1.8,0.3,2.4,1C334,393.3,334.3,394.2,334.3,395.3z
			 M329.1,395.3c0,1.6,0.6,2.4,1.8,2.4c1.2,0,1.8-0.8,1.8-2.4c0-1.6-0.6-2.4-1.8-2.4c-0.6,0-1.1,0.2-1.4,0.6
			C329.3,393.9,329.1,394.5,329.1,395.3z"/>
		<path class="st0" d="M339.5,391.7c0.3,0,0.5,0,0.7,0.1l-0.1,1.4c-0.2-0.1-0.4-0.1-0.7-0.1c-0.6,0-1.1,0.2-1.5,0.6
			c-0.4,0.4-0.6,0.9-0.6,1.5v3.7H336v-7h1.2l0.2,1.2h0.1c0.2-0.4,0.5-0.8,0.9-1C338.7,391.8,339.1,391.7,339.5,391.7z"/>
		<path class="st0" d="M344.2,397.7c0.4,0,0.7-0.1,1.1-0.2v1.1c-0.2,0.1-0.4,0.1-0.6,0.2c-0.3,0-0.5,0.1-0.8,0.1
			c-1.4,0-2.1-0.7-2.1-2.2v-3.8h-1v-0.7l1-0.5l0.5-1.5h0.9v1.6h2v1.1h-2v3.8c0,0.4,0.1,0.6,0.3,0.8
			C343.7,397.7,343.9,397.7,344.2,397.7z"/>
		<path class="st0" d="M346.6,389.9c0-0.3,0.1-0.5,0.2-0.6c0.1-0.1,0.4-0.2,0.6-0.2c0.3,0,0.5,0.1,0.6,0.2c0.1,0.1,0.2,0.3,0.2,0.6
			c0,0.3-0.1,0.5-0.2,0.6c-0.1,0.1-0.4,0.2-0.6,0.2c-0.3,0-0.5-0.1-0.6-0.2C346.7,390.4,346.6,390.2,346.6,389.9z M348.2,398.8h-1.5
			v-7h1.5V398.8z"/>
		<path class="st0" d="M355.3,398.8l-0.2-0.9H355c-0.2,0.3-0.5,0.6-0.9,0.8s-0.8,0.3-1.3,0.3c-0.9,0-1.5-0.2-1.9-0.6
			s-0.6-1.1-0.6-1.9v-4.6h1.5v4.3c0,0.5,0.1,0.9,0.3,1.2c0.2,0.3,0.6,0.4,1,0.4c0.6,0,1.1-0.2,1.4-0.6c0.3-0.4,0.4-1,0.4-1.9v-3.5
			h1.5v7H355.3z"/>
		<path class="st0" d="M364.5,398.8H363v-4.3c0-0.5-0.1-0.9-0.3-1.2s-0.5-0.4-1-0.4c-0.6,0-1,0.2-1.3,0.6c-0.3,0.4-0.4,1-0.4,1.9
			v3.5h-1.5v-7h1.2l0.2,0.9h0.1c0.2-0.3,0.5-0.6,0.8-0.8c0.4-0.2,0.8-0.3,1.2-0.3c1.1,0,1.8,0.4,2.1,1.1h0.1
			c0.2-0.3,0.5-0.6,0.9-0.8c0.4-0.2,0.8-0.3,1.3-0.3c0.8,0,1.4,0.2,1.8,0.6c0.4,0.4,0.6,1.1,0.6,1.9v4.6h-1.5v-4.3
			c0-0.5-0.1-0.9-0.3-1.2s-0.5-0.4-1-0.4c-0.6,0-1,0.2-1.3,0.5c-0.3,0.4-0.4,0.9-0.4,1.7V398.8z"/>
		<path class="st0" d="M378.5,398.8l-2.7-7.8h-0.1c0.1,1.2,0.1,2.2,0.1,3.2v4.5h-1.4v-9.3h2.1l2.6,7.4h0l2.7-7.4h2.1v9.3h-1.5v-4.6
			c0-0.5,0-1.1,0-1.8c0-0.7,0-1.2,0.1-1.3h-0.1l-2.8,7.7H378.5z"/>
		<path class="st0" d="M389.4,398.9c-1.1,0-1.9-0.3-2.6-1c-0.6-0.6-0.9-1.5-0.9-2.6c0-1.1,0.3-2,0.9-2.7c0.6-0.7,1.4-1,2.4-1
			c0.9,0,1.7,0.3,2.2,0.8c0.5,0.6,0.8,1.3,0.8,2.3v0.8h-4.7c0,0.7,0.2,1.2,0.6,1.6c0.3,0.4,0.8,0.5,1.5,0.5c0.4,0,0.8,0,1.2-0.1
			s0.7-0.2,1.2-0.4v1.2c-0.4,0.2-0.7,0.3-1.1,0.4C390.3,398.9,389.9,398.9,389.4,398.9z M389.2,392.8c-0.5,0-0.9,0.2-1.1,0.5
			c-0.3,0.3-0.5,0.7-0.5,1.3h3.2c0-0.6-0.1-1-0.4-1.3C390,393,389.6,392.8,389.2,392.8z"/>
		<path class="st0" d="M399.8,398.8h-1.5v-4.3c0-0.5-0.1-0.9-0.3-1.2s-0.5-0.4-1-0.4c-0.6,0-1,0.2-1.3,0.6c-0.3,0.4-0.4,1-0.4,1.9
			v3.5h-1.5v-7h1.2l0.2,0.9h0.1c0.2-0.3,0.5-0.6,0.8-0.8c0.4-0.2,0.8-0.3,1.2-0.3c1.1,0,1.8,0.4,2.1,1.1h0.1
			c0.2-0.3,0.5-0.6,0.9-0.8c0.4-0.2,0.8-0.3,1.3-0.3c0.8,0,1.4,0.2,1.8,0.6c0.4,0.4,0.6,1.1,0.6,1.9v4.6h-1.5v-4.3
			c0-0.5-0.1-0.9-0.3-1.2s-0.5-0.4-1-0.4c-0.6,0-1,0.2-1.3,0.5c-0.3,0.4-0.4,0.9-0.4,1.7V398.8z"/>
		<path class="st0" d="M409.9,391.7c0.9,0,1.6,0.3,2,1c0.5,0.6,0.7,1.5,0.7,2.7c0,1.2-0.2,2-0.7,2.7c-0.5,0.6-1.2,1-2.1,1
			c-0.9,0-1.6-0.3-2.1-1h-0.1l-0.3,0.8h-1.1v-9.9h1.5v2.3c0,0.2,0,0.4,0,0.8c0,0.3,0,0.6,0,0.7h0.1
			C408.2,392,408.9,391.7,409.9,391.7z M409.5,392.9c-0.6,0-1,0.2-1.3,0.5c-0.3,0.4-0.4,0.9-0.4,1.8v0.1c0,0.9,0.1,1.5,0.4,1.9
			c0.3,0.4,0.7,0.6,1.3,0.6c0.5,0,0.9-0.2,1.2-0.6c0.3-0.4,0.4-1,0.4-1.8C411.1,393.7,410.6,392.9,409.5,392.9z"/>
		<path class="st0" d="M417.4,398.9c-1.1,0-1.9-0.3-2.6-1c-0.6-0.6-0.9-1.5-0.9-2.6c0-1.1,0.3-2,0.9-2.7c0.6-0.7,1.4-1,2.4-1
			c0.9,0,1.7,0.3,2.2,0.8c0.5,0.6,0.8,1.3,0.8,2.3v0.8h-4.7c0,0.7,0.2,1.2,0.6,1.6c0.3,0.4,0.8,0.5,1.5,0.5c0.4,0,0.8,0,1.2-0.1
			s0.7-0.2,1.2-0.4v1.2c-0.4,0.2-0.7,0.3-1.1,0.4C418.4,398.9,417.9,398.9,417.4,398.9z M417.2,392.8c-0.5,0-0.9,0.2-1.1,0.5
			c-0.3,0.3-0.5,0.7-0.5,1.3h3.2c0-0.6-0.1-1-0.4-1.3C418,393,417.7,392.8,417.2,392.8z"/>
		<path class="st0" d="M425.4,391.7c0.3,0,0.5,0,0.7,0.1l-0.1,1.4c-0.2-0.1-0.4-0.1-0.7-0.1c-0.6,0-1.1,0.2-1.5,0.6
			c-0.4,0.4-0.6,0.9-0.6,1.5v3.7h-1.5v-7h1.2l0.2,1.2h0.1c0.2-0.4,0.5-0.8,0.9-1C424.6,391.8,425,391.7,425.4,391.7z"/>
	</g>
	<g>
		<path class="st0" d="M305.7,408.8c0,1.5-0.4,2.7-1.1,3.5s-1.8,1.3-3.2,1.3c-1.4,0-2.5-0.4-3.2-1.2c-0.8-0.8-1.1-2-1.1-3.5
			c0-1.5,0.4-2.7,1.1-3.5c0.8-0.8,1.8-1.2,3.2-1.2c1.4,0,2.4,0.4,3.2,1.2S305.7,407.3,305.7,408.8z M298.6,408.8
			c0,1.1,0.2,2,0.7,2.6c0.5,0.6,1.1,0.9,2.1,0.9c0.9,0,1.6-0.3,2-0.9c0.5-0.6,0.7-1.5,0.7-2.6c0-1.1-0.2-2-0.7-2.6
			c-0.5-0.6-1.1-0.9-2-0.9c-0.9,0-1.6,0.3-2.1,0.9C298.8,406.8,298.6,407.6,298.6,408.8z"/>
		<path class="st0" d="M311.1,406.3c0.3,0,0.5,0,0.7,0.1l-0.1,1.4c-0.2-0.1-0.4-0.1-0.7-0.1c-0.6,0-1.1,0.2-1.5,0.6
			c-0.4,0.4-0.6,0.9-0.6,1.5v3.7h-1.5v-7h1.2l0.2,1.2h0.1c0.2-0.4,0.5-0.8,0.9-1C310.2,406.4,310.6,406.3,311.1,406.3z"/>
		<path class="st0" d="M319,406.4v0.8l-1.2,0.2c0.1,0.1,0.2,0.3,0.3,0.5s0.1,0.4,0.1,0.7c0,0.7-0.2,1.3-0.7,1.7
			c-0.5,0.4-1.2,0.6-2.1,0.6c-0.2,0-0.4,0-0.6-0.1c-0.3,0.2-0.5,0.4-0.5,0.7c0,0.2,0.1,0.3,0.2,0.4s0.4,0.1,0.8,0.1h1.2
			c0.8,0,1.4,0.2,1.8,0.5c0.4,0.3,0.6,0.8,0.6,1.4c0,0.8-0.3,1.4-1,1.8c-0.7,0.4-1.6,0.6-2.8,0.6c-1,0-1.7-0.2-2.2-0.5
			s-0.8-0.8-0.8-1.4c0-0.4,0.1-0.8,0.4-1.1c0.3-0.3,0.7-0.5,1.1-0.6c-0.2-0.1-0.4-0.2-0.5-0.4s-0.2-0.4-0.2-0.6
			c0-0.3,0.1-0.5,0.2-0.7c0.1-0.2,0.4-0.4,0.7-0.5c-0.4-0.2-0.7-0.4-0.9-0.8s-0.3-0.8-0.3-1.2c0-0.8,0.2-1.4,0.7-1.8
			s1.2-0.6,2.1-0.6c0.2,0,0.4,0,0.6,0s0.4,0.1,0.5,0.1H319z M313.5,414.5c0,0.3,0.1,0.6,0.4,0.7c0.3,0.2,0.7,0.3,1.2,0.3
			c0.8,0,1.4-0.1,1.8-0.3c0.4-0.2,0.6-0.5,0.6-0.9c0-0.3-0.1-0.5-0.3-0.7s-0.6-0.2-1.2-0.2h-1.1c-0.4,0-0.8,0.1-1,0.3
			S313.5,414.2,313.5,414.5z M314.2,408.7c0,0.4,0.1,0.8,0.3,1s0.6,0.4,1,0.4c0.9,0,1.3-0.5,1.3-1.4c0-0.5-0.1-0.8-0.3-1.1
			c-0.2-0.2-0.5-0.4-1-0.4c-0.4,0-0.8,0.1-1,0.4C314.3,407.8,314.2,408.2,314.2,408.7z"/>
		<path class="st0" d="M324.7,413.4l-0.3-1h-0.1c-0.3,0.4-0.7,0.7-1,0.9s-0.8,0.2-1.3,0.2c-0.7,0-1.2-0.2-1.6-0.6
			c-0.4-0.4-0.6-0.9-0.6-1.6c0-0.7,0.3-1.3,0.8-1.6c0.5-0.4,1.4-0.6,2.5-0.6l1.2,0v-0.4c0-0.4-0.1-0.8-0.3-1c-0.2-0.2-0.5-0.3-1-0.3
			c-0.4,0-0.7,0.1-1,0.2c-0.3,0.1-0.6,0.2-1,0.4l-0.5-1.1c0.4-0.2,0.8-0.4,1.3-0.5s0.9-0.2,1.3-0.2c0.9,0,1.6,0.2,2,0.6
			s0.7,1,0.7,1.8v4.7H324.7z M322.5,412.4c0.5,0,1-0.2,1.3-0.5s0.5-0.7,0.5-1.3v-0.6l-0.9,0c-0.7,0-1.2,0.1-1.5,0.4
			c-0.3,0.2-0.5,0.5-0.5,1c0,0.3,0.1,0.6,0.3,0.7C321.9,412.3,322.1,412.4,322.5,412.4z"/>
		<path class="st0" d="M334.1,413.4h-1.5v-4.3c0-0.5-0.1-0.9-0.3-1.2s-0.6-0.4-1-0.4c-0.6,0-1.1,0.2-1.4,0.6s-0.4,1-0.4,1.9v3.5
			h-1.5v-7h1.2l0.2,0.9h0.1c0.2-0.3,0.5-0.6,0.9-0.8c0.4-0.2,0.8-0.3,1.3-0.3c1.7,0,2.5,0.9,2.5,2.6V413.4z"/>
		<path class="st0" d="M336,404.5c0-0.3,0.1-0.5,0.2-0.6c0.1-0.1,0.4-0.2,0.6-0.2c0.3,0,0.5,0.1,0.6,0.2c0.1,0.1,0.2,0.3,0.2,0.6
			c0,0.3-0.1,0.5-0.2,0.6c-0.1,0.1-0.4,0.2-0.6,0.2c-0.3,0-0.5-0.1-0.6-0.2C336.1,405,336,404.8,336,404.5z M337.6,413.4h-1.5v-7
			h1.5V413.4z"/>
		<path class="st0" d="M344.5,411.4c0,0.7-0.2,1.2-0.7,1.6c-0.5,0.4-1.2,0.5-2.1,0.5c-0.9,0-1.7-0.1-2.3-0.4v-1.3
			c0.8,0.4,1.6,0.6,2.3,0.6c0.9,0,1.4-0.3,1.4-0.8c0-0.2-0.1-0.3-0.2-0.4c-0.1-0.1-0.3-0.2-0.5-0.4c-0.2-0.1-0.6-0.3-1-0.4
			c-0.8-0.3-1.4-0.6-1.6-0.9c-0.3-0.3-0.4-0.7-0.4-1.2c0-0.6,0.2-1.1,0.7-1.4s1.1-0.5,2-0.5c0.8,0,1.6,0.2,2.3,0.5l-0.5,1.1
			c-0.8-0.3-1.4-0.5-1.9-0.5c-0.8,0-1.2,0.2-1.2,0.7c0,0.2,0.1,0.4,0.3,0.6s0.7,0.4,1.3,0.6c0.6,0.2,1,0.4,1.3,0.6
			c0.3,0.2,0.5,0.4,0.6,0.6S344.5,411.1,344.5,411.4z"/>
		<path class="st0" d="M350.5,413.4l-0.3-1h-0.1c-0.3,0.4-0.7,0.7-1,0.9s-0.8,0.2-1.3,0.2c-0.7,0-1.2-0.2-1.6-0.6
			c-0.4-0.4-0.6-0.9-0.6-1.6c0-0.7,0.3-1.3,0.8-1.6c0.5-0.4,1.4-0.6,2.5-0.6l1.2,0v-0.4c0-0.4-0.1-0.8-0.3-1c-0.2-0.2-0.5-0.3-1-0.3
			c-0.4,0-0.7,0.1-1,0.2c-0.3,0.1-0.6,0.2-1,0.4l-0.5-1.1c0.4-0.2,0.8-0.4,1.3-0.5s0.9-0.2,1.3-0.2c0.9,0,1.6,0.2,2,0.6
			s0.7,1,0.7,1.8v4.7H350.5z M348.3,412.4c0.5,0,1-0.2,1.3-0.5s0.5-0.7,0.5-1.3v-0.6l-0.9,0c-0.7,0-1.2,0.1-1.5,0.4
			c-0.3,0.2-0.5,0.5-0.5,1c0,0.3,0.1,0.6,0.3,0.7C347.6,412.3,347.9,412.4,348.3,412.4z"/>
		<path class="st0" d="M356.2,412.3c0.4,0,0.7-0.1,1.1-0.2v1.1c-0.2,0.1-0.4,0.1-0.6,0.2c-0.3,0-0.5,0.1-0.8,0.1
			c-1.4,0-2.1-0.7-2.1-2.2v-3.8h-1v-0.7l1-0.5l0.5-1.5h0.9v1.6h2v1.1h-2v3.8c0,0.4,0.1,0.6,0.3,0.8
			C355.7,412.3,355.9,412.3,356.2,412.3z"/>
		<path class="st0" d="M358.6,404.5c0-0.3,0.1-0.5,0.2-0.6c0.1-0.1,0.4-0.2,0.6-0.2c0.3,0,0.5,0.1,0.6,0.2c0.1,0.1,0.2,0.3,0.2,0.6
			c0,0.3-0.1,0.5-0.2,0.6c-0.1,0.1-0.4,0.2-0.6,0.2c-0.3,0-0.5-0.1-0.6-0.2C358.7,405,358.6,404.8,358.6,404.5z M360.2,413.4h-1.5
			v-7h1.5V413.4z"/>
		<path class="st0" d="M368.6,409.9c0,1.1-0.3,2-0.9,2.7s-1.4,1-2.5,1c-0.7,0-1.2-0.1-1.7-0.4c-0.5-0.3-0.9-0.7-1.2-1.3
			c-0.3-0.6-0.4-1.2-0.4-1.9c0-1.1,0.3-2,0.9-2.7c0.6-0.6,1.4-1,2.5-1c1,0,1.8,0.3,2.4,1C368.3,407.9,368.6,408.8,368.6,409.9z
			 M363.5,409.9c0,1.6,0.6,2.4,1.8,2.4c1.2,0,1.8-0.8,1.8-2.4c0-1.6-0.6-2.4-1.8-2.4c-0.6,0-1.1,0.2-1.4,0.6
			S363.5,409.1,363.5,409.9z"/>
		<path class="st0" d="M376.5,413.4H375v-4.3c0-0.5-0.1-0.9-0.3-1.2s-0.6-0.4-1-0.4c-0.6,0-1.1,0.2-1.4,0.6s-0.4,1-0.4,1.9v3.5h-1.5
			v-7h1.2l0.2,0.9h0.1c0.2-0.3,0.5-0.6,0.9-0.8c0.4-0.2,0.8-0.3,1.3-0.3c1.7,0,2.5,0.9,2.5,2.6V413.4z"/>
	</g>
	<path class="st1" d="M254.1,399h3.1v-21.7h-3.1V399L254.1,399z M268.7,398.9c1.9,0,3.2-0.1,3.9-0.2c0.7-0.1,1.4-0.3,2.3-0.6
		c1.4-0.5,2.6-1.3,3.7-2.3c1-1,1.8-2.2,2.4-3.5c0.6-1.3,0.8-2.7,0.8-4.2c0-2-0.5-3.9-1.5-5.6c-1-1.7-2.4-3-4.1-3.9
		c-1.7-0.9-4.1-1.3-7-1.3h-7.3v21.7H268.7L268.7,398.9z M272,380.2c0.7,0.1,1.4,0.3,2.1,0.7c0.8,0.4,1.4,0.8,2,1.4
		c1.6,1.5,2.4,3.4,2.4,5.7c0,2.4-0.8,4.3-2.3,5.9c-0.5,0.5-1,0.9-1.6,1.2c-0.6,0.3-1.3,0.6-2.2,0.8c-0.9,0.2-2.1,0.3-3.6,0.3h-4V380
		h3.9C270.3,380,271.4,380,272,380.2L272,380.2z M253.4,372.5c0-1.2,0.9-2.1,2.1-2.1s2.1,0.9,2.1,2.1s-0.9,2.1-2.1,2.1
		S253.4,373.6,253.4,372.5L253.4,372.5z"/>
	<path class="st2" d="M188.7,380.1c-2.2,2.1-3.3,4.8-3.3,8.1c0,3.2,1.1,5.8,3.3,7.9c2.2,2.1,4.9,3.2,8.2,3.2c3.4,0,6.3-1.1,8.5-3.2
		c2.3-2.1,3.4-4.8,3.4-8c0-3.2-1.1-5.9-3.4-8c-2.2-2.1-5-3.2-8.4-3.2C193.6,376.9,190.9,378,188.7,380.1L188.7,380.1z M203.1,382.2
		c1.6,1.6,2.4,3.5,2.4,5.8c0,2.4-0.8,4.3-2.4,5.9c-1.6,1.6-3.6,2.4-6.1,2.4c-2.4,0-4.4-0.8-6-2.3c-1.6-1.6-2.4-3.5-2.4-5.9
		c0-2.4,0.8-4.4,2.4-6c1.6-1.6,3.6-2.3,6.1-2.3C199.5,379.9,201.5,380.7,203.1,382.2L203.1,382.2z M215.7,399v-9.5h0.8
		c1,0,1.7,0.1,2.2,0.3c0.4,0.2,0.9,0.6,1.4,1.1c0.5,0.5,1.1,1.2,1.8,2.1l1,1.7l1,1.6l0.6,0.9c0.1,0.1,0.2,0.2,0.2,0.3l0.9,1.4h3.7
		l-1.2-1.6c-0.5-0.6-1.1-1.6-1.8-2.8c-1.2-2-2.1-3.3-2.8-4.1c-0.7-0.8-1.3-1.4-2-1.9c1.2-0.5,2.1-1.1,2.7-2.1c0.6-0.9,0.9-2,0.9-3.3
		c0-1.9-0.6-3.3-1.9-4.4c-1.3-1.1-3-1.6-5.2-1.6h-5.4V399H215.7L215.7,399z M219.9,380.2c0.7,0.2,1.2,0.6,1.5,1.2
		c0.4,0.6,0.5,1.2,0.5,1.9c0,0.7-0.2,1.3-0.5,1.9c-0.3,0.5-0.8,1-1.4,1.2c-0.6,0.3-1.7,0.4-3.2,0.4h-1.2v-6.9h0.9
		C218.1,379.9,219.2,380,219.9,380.2L219.9,380.2z M241.6,396.3c-2.5,0-4.6-0.8-6.2-2.3c-1.6-1.5-2.4-3.5-2.4-5.9
		c0-2.4,0.8-4.3,2.5-5.9c1.6-1.6,3.7-2.4,6.2-2.4c2.4,0,4.9,0.7,7.5,2.2v-3.3c-2.8-1.2-5.3-1.8-7.6-1.8c-3.3,0-6.1,1.1-8.3,3.2
		c-2.3,2.2-3.4,4.8-3.4,8c0,2,0.5,3.8,1.5,5.6c1,1.7,2.3,3.1,4,4c1.7,1,3.7,1.5,6.2,1.5c3,0,5.6-0.6,7.9-1.9v-3.4
		C246.8,395.5,244.2,396.3,241.6,396.3L241.6,396.3L241.6,396.3z"/>
	<line class="st3" x1="289" y1="365" x2="289" y2="427.3"/>
	<g>
		<path class="st0" d="M188.6,407.8c-0.7,0-1.3,0.2-1.7,0.7s-0.6,1.1-0.6,1.9c0,0.8,0.2,1.5,0.6,2c0.4,0.5,1,0.7,1.7,0.7
			c0.4,0,1-0.1,1.5-0.2v0.7c-0.4,0.2-1,0.3-1.6,0.3c-0.9,0-1.7-0.3-2.2-0.9c-0.5-0.6-0.8-1.4-0.8-2.5c0-0.7,0.1-1.2,0.4-1.7
			c0.2-0.5,0.6-0.9,1.1-1.2c0.5-0.3,1-0.4,1.7-0.4c0.7,0,1.3,0.1,1.8,0.4l-0.3,0.6C189.6,407.9,189.1,407.8,188.6,407.8z"/>
		<path class="st0" d="M195.5,411.2c0,0.8-0.2,1.4-0.6,1.8s-0.9,0.7-1.6,0.7c-0.4,0-0.8-0.1-1.1-0.3s-0.6-0.5-0.8-0.9
			c-0.2-0.4-0.3-0.8-0.3-1.3c0-0.8,0.2-1.4,0.6-1.8s0.9-0.7,1.6-0.7c0.7,0,1.2,0.2,1.6,0.7C195.3,409.9,195.5,410.5,195.5,411.2z
			 M191.9,411.2c0,0.6,0.1,1.1,0.4,1.4c0.2,0.3,0.6,0.5,1.1,0.5c0.5,0,0.8-0.2,1.1-0.5s0.4-0.8,0.4-1.4c0-0.6-0.1-1.1-0.4-1.4
			s-0.6-0.5-1.1-0.5c-0.5,0-0.8,0.2-1.1,0.5C192,410.1,191.9,410.6,191.9,411.2z"/>
		<path class="st0" d="M200,413.6v-3.1c0-0.4-0.1-0.7-0.3-0.9c-0.2-0.2-0.5-0.3-0.8-0.3c-0.5,0-0.9,0.1-1.1,0.4
			c-0.2,0.3-0.4,0.7-0.4,1.4v2.5h-0.7v-4.8h0.6l0.1,0.7h0c0.1-0.2,0.4-0.4,0.6-0.6s0.6-0.2,0.9-0.2c0.6,0,1,0.1,1.3,0.4
			s0.4,0.7,0.4,1.3v3.1H200z"/>
		<path class="st0" d="M205.5,413.6v-3.1c0-0.4-0.1-0.7-0.3-0.9c-0.2-0.2-0.5-0.3-0.8-0.3c-0.5,0-0.9,0.1-1.1,0.4
			c-0.2,0.3-0.4,0.7-0.4,1.4v2.5h-0.7v-4.8h0.6l0.1,0.7h0c0.1-0.2,0.4-0.4,0.6-0.6s0.6-0.2,0.9-0.2c0.6,0,1,0.1,1.3,0.4
			s0.4,0.7,0.4,1.3v3.1H205.5z"/>
		<path class="st0" d="M209.7,413.7c-0.7,0-1.3-0.2-1.7-0.7c-0.4-0.4-0.6-1-0.6-1.8c0-0.8,0.2-1.4,0.6-1.9c0.4-0.5,0.9-0.7,1.5-0.7
			c0.6,0,1.1,0.2,1.4,0.6s0.5,0.9,0.5,1.6v0.5h-3.3c0,0.6,0.2,1,0.4,1.3c0.3,0.3,0.7,0.4,1.1,0.4c0.5,0,1-0.1,1.5-0.3v0.7
			c-0.3,0.1-0.5,0.2-0.7,0.2C210.3,413.7,210,413.7,209.7,413.7z M209.5,409.3c-0.4,0-0.7,0.1-0.9,0.4c-0.2,0.3-0.4,0.6-0.4,1h2.5
			c0-0.5-0.1-0.8-0.3-1.1C210.2,409.5,209.9,409.3,209.5,409.3z"/>
		<path class="st0" d="M214.5,413.7c-0.7,0-1.2-0.2-1.6-0.6s-0.6-1-0.6-1.8c0-0.8,0.2-1.4,0.6-1.9c0.4-0.4,0.9-0.7,1.7-0.7
			c0.2,0,0.5,0,0.7,0.1c0.2,0,0.4,0.1,0.5,0.2l-0.2,0.6c-0.2-0.1-0.3-0.1-0.5-0.2c-0.2,0-0.4-0.1-0.5-0.1c-1,0-1.5,0.6-1.5,1.9
			c0,0.6,0.1,1,0.4,1.4c0.2,0.3,0.6,0.5,1.1,0.5c0.4,0,0.8-0.1,1.2-0.3v0.6C215.4,413.6,215,413.7,214.5,413.7z"/>
		<path class="st0" d="M218.4,413.1c0.1,0,0.3,0,0.4,0c0.1,0,0.2,0,0.3-0.1v0.6c-0.1,0-0.2,0.1-0.3,0.1c-0.2,0-0.3,0-0.4,0
			c-0.9,0-1.4-0.5-1.4-1.5v-2.9h-0.7V409l0.7-0.3l0.3-1h0.4v1.1h1.4v0.6h-1.4v2.8c0,0.3,0.1,0.5,0.2,0.7
			C218,413,218.1,413.1,218.4,413.1z"/>
		<path class="st0" d="M219.9,407.5c0-0.2,0-0.3,0.1-0.4s0.2-0.1,0.3-0.1c0.1,0,0.2,0,0.3,0.1s0.1,0.2,0.1,0.4s0,0.3-0.1,0.4
			c-0.1,0.1-0.2,0.1-0.3,0.1c-0.1,0-0.2,0-0.3-0.1C219.9,407.8,219.9,407.7,219.9,407.5z M220.7,413.6h-0.7v-4.8h0.7V413.6z"/>
		<path class="st0" d="M225.4,413.6v-3.1c0-0.4-0.1-0.7-0.3-0.9c-0.2-0.2-0.5-0.3-0.8-0.3c-0.5,0-0.9,0.1-1.1,0.4
			c-0.2,0.3-0.4,0.7-0.4,1.4v2.5h-0.7v-4.8h0.6l0.1,0.7h0c0.1-0.2,0.4-0.4,0.6-0.6s0.6-0.2,0.9-0.2c0.6,0,1,0.1,1.3,0.4
			s0.4,0.7,0.4,1.3v3.1H225.4z"/>
		<path class="st0" d="M231.5,408.8v0.5l-0.9,0.1c0.1,0.1,0.2,0.2,0.2,0.4s0.1,0.4,0.1,0.6c0,0.5-0.2,0.8-0.5,1.1
			c-0.3,0.3-0.8,0.4-1.3,0.4c-0.1,0-0.3,0-0.4,0c-0.3,0.2-0.5,0.4-0.5,0.6c0,0.1,0.1,0.2,0.2,0.3c0.1,0.1,0.3,0.1,0.6,0.1h0.9
			c0.5,0,0.9,0.1,1.2,0.3s0.4,0.5,0.4,1c0,0.5-0.2,0.9-0.6,1.2c-0.4,0.3-1.1,0.4-1.9,0.4c-0.6,0-1.1-0.1-1.5-0.4
			c-0.3-0.2-0.5-0.6-0.5-1c0-0.3,0.1-0.5,0.3-0.8c0.2-0.2,0.5-0.4,0.8-0.4c-0.1-0.1-0.2-0.1-0.3-0.3s-0.1-0.3-0.1-0.4
			c0-0.2,0-0.3,0.1-0.5c0.1-0.1,0.2-0.3,0.4-0.4c-0.2-0.1-0.5-0.3-0.6-0.5c-0.2-0.2-0.2-0.5-0.2-0.8c0-0.5,0.2-0.9,0.5-1.2
			s0.8-0.4,1.3-0.4c0.3,0,0.5,0,0.7,0.1H231.5z M227.7,414.5c0,0.3,0.1,0.5,0.3,0.6c0.2,0.1,0.5,0.2,0.9,0.2c0.6,0,1.1-0.1,1.4-0.3
			s0.4-0.4,0.4-0.7c0-0.3-0.1-0.4-0.2-0.5c-0.2-0.1-0.5-0.2-0.9-0.2h-0.9c-0.3,0-0.6,0.1-0.8,0.2
			C227.8,413.9,227.7,414.2,227.7,414.5z M228.1,410.4c0,0.3,0.1,0.6,0.3,0.8c0.2,0.2,0.5,0.3,0.8,0.3c0.7,0,1.1-0.3,1.1-1
			c0-0.7-0.4-1.1-1.1-1.1c-0.3,0-0.6,0.1-0.8,0.3C228.2,409.7,228.1,410,228.1,410.4z"/>
		<path class="st0" d="M235.5,411v2.7h-0.7v-6.4h1.8c0.8,0,1.4,0.2,1.7,0.5c0.4,0.3,0.6,0.8,0.6,1.4c0,0.9-0.4,1.4-1.3,1.7l1.7,2.9
			h-0.9l-1.6-2.7H235.5z M235.5,410.3h1c0.5,0,0.9-0.1,1.2-0.3c0.2-0.2,0.4-0.5,0.4-0.9c0-0.4-0.1-0.7-0.4-0.9s-0.7-0.3-1.2-0.3h-1
			V410.3z"/>
		<path class="st0" d="M242.2,413.7c-0.7,0-1.3-0.2-1.7-0.7c-0.4-0.4-0.6-1-0.6-1.8c0-0.8,0.2-1.4,0.6-1.9c0.4-0.5,0.9-0.7,1.5-0.7
			c0.6,0,1.1,0.2,1.4,0.6s0.5,0.9,0.5,1.6v0.5h-3.3c0,0.6,0.2,1,0.4,1.3c0.3,0.3,0.7,0.4,1.1,0.4c0.5,0,1-0.1,1.5-0.3v0.7
			c-0.3,0.1-0.5,0.2-0.7,0.2C242.8,413.7,242.5,413.7,242.2,413.7z M242,409.3c-0.4,0-0.7,0.1-0.9,0.4c-0.2,0.3-0.4,0.6-0.4,1h2.5
			c0-0.5-0.1-0.8-0.3-1.1C242.7,409.5,242.4,409.3,242,409.3z"/>
		<path class="st0" d="M248.3,412.3c0,0.4-0.2,0.8-0.5,1c-0.3,0.2-0.8,0.4-1.4,0.4c-0.6,0-1.1-0.1-1.5-0.3v-0.7
			c0.2,0.1,0.5,0.2,0.7,0.3s0.5,0.1,0.8,0.1c0.4,0,0.7-0.1,0.9-0.2c0.2-0.1,0.3-0.3,0.3-0.6c0-0.2-0.1-0.3-0.2-0.5
			c-0.2-0.1-0.5-0.3-1-0.5c-0.4-0.2-0.8-0.3-1-0.4c-0.2-0.1-0.3-0.3-0.4-0.4s-0.1-0.3-0.1-0.6c0-0.4,0.2-0.7,0.5-0.9
			c0.3-0.2,0.8-0.3,1.3-0.3c0.5,0,1,0.1,1.5,0.3l-0.3,0.6c-0.5-0.2-0.9-0.3-1.3-0.3c-0.3,0-0.6,0.1-0.8,0.2
			c-0.2,0.1-0.3,0.3-0.3,0.4c0,0.1,0,0.2,0.1,0.3s0.2,0.2,0.3,0.3c0.1,0.1,0.4,0.2,0.8,0.4c0.6,0.2,1,0.4,1.2,0.6
			C248.2,411.7,248.3,412,248.3,412.3z"/>
		<path class="st0" d="M251.4,413.7c-0.7,0-1.3-0.2-1.7-0.7c-0.4-0.4-0.6-1-0.6-1.8c0-0.8,0.2-1.4,0.6-1.9c0.4-0.5,0.9-0.7,1.5-0.7
			c0.6,0,1.1,0.2,1.4,0.6s0.5,0.9,0.5,1.6v0.5h-3.3c0,0.6,0.2,1,0.4,1.3c0.3,0.3,0.7,0.4,1.1,0.4c0.5,0,1-0.1,1.5-0.3v0.7
			c-0.3,0.1-0.5,0.2-0.7,0.2C252,413.7,251.7,413.7,251.4,413.7z M251.2,409.3c-0.4,0-0.7,0.1-0.9,0.4c-0.2,0.3-0.4,0.6-0.4,1h2.5
			c0-0.5-0.1-0.8-0.3-1.1C251.9,409.5,251.6,409.3,251.2,409.3z"/>
		<path class="st0" d="M257.3,413.6l-0.1-0.7h0c-0.2,0.3-0.5,0.5-0.7,0.6c-0.2,0.1-0.5,0.2-0.9,0.2c-0.5,0-0.9-0.1-1.1-0.4
			c-0.3-0.2-0.4-0.6-0.4-1.1c0-1,0.8-1.5,2.3-1.5l0.8,0v-0.3c0-0.4-0.1-0.7-0.2-0.8c-0.2-0.2-0.4-0.3-0.8-0.3
			c-0.4,0-0.9,0.1-1.4,0.4l-0.2-0.6c0.2-0.1,0.5-0.2,0.8-0.3s0.6-0.1,0.9-0.1c0.6,0,1,0.1,1.3,0.4c0.3,0.3,0.4,0.7,0.4,1.2v3.3
			H257.3z M255.7,413.1c0.5,0,0.8-0.1,1.1-0.4c0.3-0.2,0.4-0.6,0.4-1v-0.4l-0.7,0c-0.6,0-1,0.1-1.3,0.3c-0.3,0.2-0.4,0.4-0.4,0.7
			c0,0.3,0.1,0.5,0.2,0.6C255.2,413.1,255.4,413.1,255.7,413.1z"/>
		<path class="st0" d="M261.5,408.7c0.2,0,0.4,0,0.6,0.1l-0.1,0.7c-0.2,0-0.4-0.1-0.5-0.1c-0.4,0-0.7,0.2-1,0.5
			c-0.3,0.3-0.4,0.7-0.4,1.2v2.6h-0.7v-4.8h0.6l0.1,0.9h0c0.2-0.3,0.4-0.6,0.6-0.7C260.9,408.8,261.2,408.7,261.5,408.7z"/>
		<path class="st0" d="M264.8,413.7c-0.7,0-1.2-0.2-1.6-0.6s-0.6-1-0.6-1.8c0-0.8,0.2-1.4,0.6-1.9c0.4-0.4,0.9-0.7,1.7-0.7
			c0.2,0,0.5,0,0.7,0.1c0.2,0,0.4,0.1,0.5,0.2l-0.2,0.6c-0.2-0.1-0.3-0.1-0.5-0.2c-0.2,0-0.4-0.1-0.5-0.1c-1,0-1.5,0.6-1.5,1.9
			c0,0.6,0.1,1,0.4,1.4c0.2,0.3,0.6,0.5,1.1,0.5c0.4,0,0.8-0.1,1.2-0.3v0.6C265.7,413.6,265.3,413.7,264.8,413.7z"/>
		<path class="st0" d="M270.4,413.6v-3.1c0-0.4-0.1-0.7-0.3-0.9c-0.2-0.2-0.5-0.3-0.8-0.3c-0.5,0-0.9,0.1-1.1,0.4
			c-0.2,0.3-0.4,0.7-0.4,1.4v2.5h-0.7v-6.8h0.7v2.1c0,0.2,0,0.5,0,0.6h0c0.1-0.2,0.3-0.4,0.6-0.5c0.3-0.1,0.6-0.2,0.9-0.2
			c0.6,0,1,0.1,1.3,0.4c0.3,0.3,0.4,0.7,0.4,1.3v3.1H270.4z"/>
	</g>
	<g>
		<path class="st0" d="M188.7,424.2l-0.1-0.7h0c-0.2,0.3-0.5,0.5-0.7,0.6c-0.2,0.1-0.5,0.2-0.9,0.2c-0.5,0-0.9-0.1-1.1-0.4
			c-0.3-0.2-0.4-0.6-0.4-1.1c0-1,0.8-1.5,2.3-1.5l0.8,0V421c0-0.4-0.1-0.7-0.2-0.8c-0.2-0.2-0.4-0.3-0.8-0.3c-0.4,0-0.9,0.1-1.4,0.4
			l-0.2-0.6c0.2-0.1,0.5-0.2,0.8-0.3s0.6-0.1,0.9-0.1c0.6,0,1,0.1,1.3,0.4c0.3,0.3,0.4,0.7,0.4,1.2v3.3H188.7z M187.1,423.6
			c0.5,0,0.8-0.1,1.1-0.4c0.3-0.2,0.4-0.6,0.4-1v-0.4l-0.7,0c-0.6,0-1,0.1-1.3,0.3c-0.3,0.2-0.4,0.4-0.4,0.7c0,0.3,0.1,0.5,0.2,0.6
			C186.6,423.6,186.8,423.6,187.1,423.6z"/>
		<path class="st0" d="M194,424.2V421c0-0.4-0.1-0.7-0.3-0.9c-0.2-0.2-0.5-0.3-0.8-0.3c-0.5,0-0.9,0.1-1.1,0.4
			c-0.2,0.3-0.4,0.7-0.4,1.4v2.5h-0.7v-4.8h0.6l0.1,0.7h0c0.1-0.2,0.4-0.4,0.6-0.6s0.6-0.2,0.9-0.2c0.6,0,1,0.1,1.3,0.4
			s0.4,0.7,0.4,1.3v3.1H194z"/>
		<path class="st0" d="M199.4,423.5L199.4,423.5c-0.4,0.5-0.9,0.7-1.6,0.7c-0.6,0-1.1-0.2-1.5-0.6c-0.4-0.4-0.5-1-0.5-1.8
			s0.2-1.4,0.5-1.9c0.4-0.4,0.8-0.7,1.5-0.7c0.7,0,1.2,0.2,1.5,0.7h0.1l0-0.3l0-0.3v-2h0.7v6.8h-0.6L199.4,423.5z M198,423.6
			c0.5,0,0.9-0.1,1.1-0.4c0.2-0.3,0.3-0.7,0.3-1.3v-0.2c0-0.7-0.1-1.2-0.3-1.5c-0.2-0.3-0.6-0.4-1.1-0.4c-0.4,0-0.8,0.2-1,0.5
			c-0.2,0.3-0.3,0.8-0.3,1.4c0,0.6,0.1,1.1,0.3,1.4C197.2,423.5,197.5,423.6,198,423.6z"/>
		<path class="st0" d="M204.7,421.5v2.7h-0.7v-6.4h1.8c0.8,0,1.4,0.2,1.7,0.5c0.4,0.3,0.6,0.8,0.6,1.4c0,0.9-0.4,1.4-1.3,1.7
			l1.7,2.9h-0.9l-1.6-2.7H204.7z M204.7,420.8h1c0.5,0,0.9-0.1,1.2-0.3c0.2-0.2,0.4-0.5,0.4-0.9c0-0.4-0.1-0.7-0.4-0.9
			s-0.7-0.3-1.2-0.3h-1V420.8z"/>
		<path class="st0" d="M211.3,424.2c-0.7,0-1.3-0.2-1.7-0.7c-0.4-0.4-0.6-1-0.6-1.8c0-0.8,0.2-1.4,0.6-1.9c0.4-0.5,0.9-0.7,1.5-0.7
			c0.6,0,1.1,0.2,1.4,0.6s0.5,0.9,0.5,1.6v0.5h-3.3c0,0.6,0.2,1,0.4,1.3c0.3,0.3,0.7,0.4,1.1,0.4c0.5,0,1-0.1,1.5-0.3v0.7
			c-0.3,0.1-0.5,0.2-0.7,0.2C211.9,424.2,211.7,424.2,211.3,424.2z M211.1,419.9c-0.4,0-0.7,0.1-0.9,0.4c-0.2,0.3-0.4,0.6-0.4,1h2.5
			c0-0.5-0.1-0.8-0.3-1.1C211.8,420,211.5,419.9,211.1,419.9z"/>
		<path class="st0" d="M217.4,422.8c0,0.4-0.2,0.8-0.5,1c-0.3,0.2-0.8,0.4-1.4,0.4c-0.6,0-1.1-0.1-1.5-0.3v-0.7
			c0.2,0.1,0.5,0.2,0.7,0.3s0.5,0.1,0.8,0.1c0.4,0,0.7-0.1,0.9-0.2c0.2-0.1,0.3-0.3,0.3-0.6c0-0.2-0.1-0.3-0.2-0.5
			c-0.2-0.1-0.5-0.3-1-0.5c-0.4-0.2-0.8-0.3-1-0.4c-0.2-0.1-0.3-0.3-0.4-0.4s-0.1-0.3-0.1-0.6c0-0.4,0.2-0.7,0.5-0.9
			c0.3-0.2,0.8-0.3,1.3-0.3c0.5,0,1,0.1,1.5,0.3l-0.3,0.6c-0.5-0.2-0.9-0.3-1.3-0.3c-0.3,0-0.6,0.1-0.8,0.2
			c-0.2,0.1-0.3,0.3-0.3,0.4c0,0.1,0,0.2,0.1,0.3s0.2,0.2,0.3,0.3c0.1,0.1,0.4,0.2,0.8,0.4c0.6,0.2,1,0.4,1.2,0.6
			C217.3,422.3,217.4,422.5,217.4,422.8z"/>
		<path class="st0" d="M220.5,424.2c-0.7,0-1.3-0.2-1.7-0.7c-0.4-0.4-0.6-1-0.6-1.8c0-0.8,0.2-1.4,0.6-1.9c0.4-0.5,0.9-0.7,1.5-0.7
			c0.6,0,1.1,0.2,1.4,0.6s0.5,0.9,0.5,1.6v0.5H219c0,0.6,0.2,1,0.4,1.3c0.3,0.3,0.7,0.4,1.1,0.4c0.5,0,1-0.1,1.5-0.3v0.7
			c-0.3,0.1-0.5,0.2-0.7,0.2C221.1,424.2,220.8,424.2,220.5,424.2z M220.3,419.9c-0.4,0-0.7,0.1-0.9,0.4c-0.2,0.3-0.4,0.6-0.4,1h2.5
			c0-0.5-0.1-0.8-0.3-1.1C221,420,220.7,419.9,220.3,419.9z"/>
		<path class="st0" d="M226.4,424.2l-0.1-0.7h0c-0.2,0.3-0.5,0.5-0.7,0.6c-0.2,0.1-0.5,0.2-0.9,0.2c-0.5,0-0.9-0.1-1.1-0.4
			c-0.3-0.2-0.4-0.6-0.4-1.1c0-1,0.8-1.5,2.3-1.5l0.8,0V421c0-0.4-0.1-0.7-0.2-0.8c-0.2-0.2-0.4-0.3-0.8-0.3c-0.4,0-0.9,0.1-1.4,0.4
			l-0.2-0.6c0.2-0.1,0.5-0.2,0.8-0.3s0.6-0.1,0.9-0.1c0.6,0,1,0.1,1.3,0.4c0.3,0.3,0.4,0.7,0.4,1.2v3.3H226.4z M224.8,423.6
			c0.5,0,0.8-0.1,1.1-0.4c0.3-0.2,0.4-0.6,0.4-1v-0.4l-0.7,0c-0.6,0-1,0.1-1.3,0.3c-0.3,0.2-0.4,0.4-0.4,0.7c0,0.3,0.1,0.5,0.2,0.6
			C224.2,423.6,224.5,423.6,224.8,423.6z"/>
		<path class="st0" d="M230.6,419.2c0.2,0,0.4,0,0.6,0.1L231,420c-0.2,0-0.4-0.1-0.5-0.1c-0.4,0-0.7,0.2-1,0.5
			c-0.3,0.3-0.4,0.7-0.4,1.2v2.6h-0.7v-4.8h0.6l0.1,0.9h0c0.2-0.3,0.4-0.6,0.6-0.7C230,419.3,230.3,419.2,230.6,419.2z"/>
		<path class="st0" d="M233.9,424.2c-0.7,0-1.2-0.2-1.6-0.6s-0.6-1-0.6-1.8c0-0.8,0.2-1.4,0.6-1.9c0.4-0.4,0.9-0.7,1.7-0.7
			c0.2,0,0.5,0,0.7,0.1c0.2,0,0.4,0.1,0.5,0.2l-0.2,0.6c-0.2-0.1-0.3-0.1-0.5-0.2c-0.2,0-0.4-0.1-0.5-0.1c-1,0-1.5,0.6-1.5,1.9
			c0,0.6,0.1,1,0.4,1.4c0.2,0.3,0.6,0.5,1.1,0.5c0.4,0,0.8-0.1,1.2-0.3v0.6C234.8,424.2,234.4,424.2,233.9,424.2z"/>
		<path class="st0" d="M239.5,424.2V421c0-0.4-0.1-0.7-0.3-0.9c-0.2-0.2-0.5-0.3-0.8-0.3c-0.5,0-0.9,0.1-1.1,0.4
			c-0.2,0.3-0.4,0.7-0.4,1.4v2.5h-0.7v-6.8h0.7v2.1c0,0.2,0,0.5,0,0.6h0c0.1-0.2,0.3-0.4,0.6-0.5c0.3-0.1,0.6-0.2,0.9-0.2
			c0.6,0,1,0.1,1.3,0.4c0.3,0.3,0.4,0.7,0.4,1.3v3.1H239.5z"/>
		<path class="st0" d="M243.6,424.2c-0.7,0-1.3-0.2-1.7-0.7c-0.4-0.4-0.6-1-0.6-1.8c0-0.8,0.2-1.4,0.6-1.9c0.4-0.5,0.9-0.7,1.5-0.7
			c0.6,0,1.1,0.2,1.4,0.6s0.5,0.9,0.5,1.6v0.5h-3.3c0,0.6,0.2,1,0.4,1.3c0.3,0.3,0.7,0.4,1.1,0.4c0.5,0,1-0.1,1.5-0.3v0.7
			c-0.3,0.1-0.5,0.2-0.7,0.2C244.2,424.2,244,424.2,243.6,424.2z M243.4,419.9c-0.4,0-0.7,0.1-0.9,0.4c-0.2,0.3-0.4,0.6-0.4,1h2.5
			c0-0.5-0.1-0.8-0.3-1.1C244.1,420,243.8,419.9,243.4,419.9z"/>
		<path class="st0" d="M248.8,419.2c0.2,0,0.4,0,0.6,0.1l-0.1,0.7c-0.2,0-0.4-0.1-0.5-0.1c-0.4,0-0.7,0.2-1,0.5
			c-0.3,0.3-0.4,0.7-0.4,1.2v2.6h-0.7v-4.8h0.6l0.1,0.9h0c0.2-0.3,0.4-0.6,0.6-0.7C248.2,419.3,248.5,419.2,248.8,419.2z"/>
		<path class="st0" d="M253.3,422.8c0,0.4-0.2,0.8-0.5,1c-0.3,0.2-0.8,0.4-1.4,0.4c-0.6,0-1.1-0.1-1.5-0.3v-0.7
			c0.2,0.1,0.5,0.2,0.7,0.3s0.5,0.1,0.8,0.1c0.4,0,0.7-0.1,0.9-0.2c0.2-0.1,0.3-0.3,0.3-0.6c0-0.2-0.1-0.3-0.2-0.5
			c-0.2-0.1-0.5-0.3-1-0.5c-0.4-0.2-0.8-0.3-1-0.4c-0.2-0.1-0.3-0.3-0.4-0.4s-0.1-0.3-0.1-0.6c0-0.4,0.2-0.7,0.5-0.9
			c0.3-0.2,0.8-0.3,1.3-0.3c0.5,0,1,0.1,1.5,0.3l-0.3,0.6c-0.5-0.2-0.9-0.3-1.3-0.3c-0.3,0-0.6,0.1-0.8,0.2
			c-0.2,0.1-0.3,0.3-0.3,0.4c0,0.1,0,0.2,0.1,0.3s0.2,0.2,0.3,0.3c0.1,0.1,0.4,0.2,0.8,0.4c0.6,0.2,1,0.4,1.2,0.6
			C253.2,422.3,253.3,422.5,253.3,422.8z"/>
	</g>
</g>
</svg>
